<svg width="39" height="29" viewBox="0 0 39 29" fill="none" xmlns="http://www.w3.org/2000/svg">
<g filter="url(#filter0_d_2_13)">
<path d="M31.1636 13.125H15.3867L15.7389 14.4375H30.1851C31.0139 14.4375 31.6283 15.0241 31.4446 15.64L31.1477 16.6357C32.1536 17.0079 32.8472 17.7937 32.8472 18.7031C32.8472 19.9829 31.4738 21.0182 29.789 20.9998C28.1839 20.9822 26.8639 19.9895 26.8206 18.7666C26.7969 18.0986 27.1481 17.4931 27.7249 17.0625H16.4418C17.0003 17.4794 17.3472 18.0602 17.3472 18.7031C17.3472 20.008 15.9195 21.0587 14.1896 20.9975C12.6536 20.9431 11.4044 19.9973 11.3237 18.827C11.2614 17.9233 11.8854 17.1267 12.8334 16.7112L9.05273 2.625H5.29167C4.57829 2.625 4 2.18429 4 1.64062V0.984375C4 0.440713 4.57829 0 5.29167 0H10.8097C11.4233 0 11.9522 0.328986 12.0752 0.78709L12.5685 2.625H33.7078C34.5367 2.625 35.151 3.21156 34.9673 3.82754L32.4231 12.3588C32.2895 12.807 31.7667 13.125 31.1636 13.125ZM25.9583 6.89062H23.375V5.25C23.375 4.88754 22.9895 4.59375 22.5139 4.59375H21.6528C21.1772 4.59375 20.7917 4.88754 20.7917 5.25V6.89062H18.2083C17.7327 6.89062 17.3472 7.18442 17.3472 7.54687V8.20312C17.3472 8.56558 17.7327 8.85937 18.2083 8.85937H20.7917V10.5C20.7917 10.8625 21.1772 11.1562 21.6528 11.1562H22.5139C22.9895 11.1562 23.375 10.8625 23.375 10.5V8.85937H25.9583C26.4339 8.85937 26.8195 8.56558 26.8195 8.20312V7.54687C26.8195 7.18442 26.4339 6.89062 25.9583 6.89062Z" fill="#AAD897"/>
</g>
<defs>
<filter id="filter0_d_2_13" x="0" y="0" width="39" height="29" filterUnits="userSpaceOnUse" color-interpolation-filters="sRGB">
<feFlood flood-opacity="0" result="BackgroundImageFix"/>
<feColorMatrix in="SourceAlpha" type="matrix" values="0 0 0 0 0 0 0 0 0 0 0 0 0 0 0 0 0 0 127 0" result="hardAlpha"/>
<feOffset dy="4"/>
<feGaussianBlur stdDeviation="2"/>
<feComposite in2="hardAlpha" operator="out"/>
<feColorMatrix type="matrix" values="0 0 0 0 0 0 0 0 0 0 0 0 0 0 0 0 0 0 0.25 0"/>
<feBlend mode="normal" in2="BackgroundImageFix" result="effect1_dropShadow_2_13"/>
<feBlend mode="normal" in="SourceGraphic" in2="effect1_dropShadow_2_13" result="shape"/>
</filter>
</defs>
</svg>
